<mxfile host="65bd71144e" modified="2020-10-27T23:46:41.823Z" agent="5.0 (Macintosh; Intel Mac OS X 10_15_6) AppleWebKit/537.36 (KHTML, like Gecko) Code/1.50.1 Chrome/83.0.4103.122 Electron/9.2.1 Safari/537.36" version="13.6.5" etag="Wxqtlkx8ilcOeu2czB0a">
    <diagram id="3xrvuh1aV4drqnQBCJeo" name="Page-1">
        <mxGraphModel dx="965" dy="815" grid="1" gridSize="10" guides="1" tooltips="1" connect="1" arrows="1" fold="1" page="1" pageScale="1" pageWidth="827" pageHeight="1169" math="0" shadow="0">
            <root>
                <mxCell id="0"/>
                <mxCell id="1" parent="0"/>
                <mxCell id="2" value="" style="ellipse;whiteSpace=wrap;html=1;aspect=fixed;fillColor=#60a917;strokeColor=#2D7600;fontColor=#ffffff;" vertex="1" parent="1">
                    <mxGeometry x="80" y="80" width="600" height="600" as="geometry"/>
                </mxCell>
                <mxCell id="3" value="" style="ellipse;whiteSpace=wrap;html=1;aspect=fixed;fillColor=#f0a30a;strokeColor=#BD7000;fontColor=#ffffff;" vertex="1" parent="1">
                    <mxGeometry x="132.5" y="132.5" width="495" height="495" as="geometry"/>
                </mxCell>
                <mxCell id="5" value="" style="ellipse;whiteSpace=wrap;html=1;aspect=fixed;fillColor=#e51400;strokeColor=#B20000;fontColor=#ffffff;" vertex="1" parent="1">
                    <mxGeometry x="217.5" y="217.5" width="325" height="325" as="geometry"/>
                </mxCell>
                <mxCell id="6" value="Functional" style="text;html=1;align=center;verticalAlign=middle;whiteSpace=wrap;rounded=0;fontColor=#000000;fontSize=17;" vertex="1" parent="1">
                    <mxGeometry x="340" y="80" width="160" height="60" as="geometry"/>
                </mxCell>
                <mxCell id="7" value="Integration" style="text;html=1;align=center;verticalAlign=middle;whiteSpace=wrap;rounded=0;fontColor=#000000;fontSize=17;" vertex="1" parent="1">
                    <mxGeometry x="360" y="160" width="160" height="60" as="geometry"/>
                </mxCell>
                <mxCell id="8" value="Unit" style="text;html=1;align=center;verticalAlign=middle;whiteSpace=wrap;rounded=0;fontColor=#000000;fontSize=17;" vertex="1" parent="1">
                    <mxGeometry x="340" y="280" width="160" height="60" as="geometry"/>
                </mxCell>
            </root>
        </mxGraphModel>
    </diagram>
</mxfile>